<svg version="1" xmlns="http://www.w3.org/2000/svg" width="2000" height="2000" viewBox="0 0 1500.000000 1500.000000"><path d="M743 266.6c-1.9.2-10.2 1.1-18.5 2-39.7 4.2-83.6 16.8-122.5 35.1-22 10.4-49 27.2-71.2 44.3-15.3 11.8-50 46.2-62.4 61.8-46.6 59-72.9 121.3-83 196.7-2.4 18-2.9 60.8-1 81.2 4.8 49.9 17.1 93.3 39 137.3 12.8 25.6 26.9 48 43.1 68 6 7.4 193.2 245.8 260.8 332 19.2 24.5 35.8 45.3 36.9 46.2 2.6 2.3 8 2.3 10.6.1 1.1-1 62.1-78.3 135.4-171.8 73.4-93.5 141.4-180.1 151.1-192.5 28.7-36.4 38.2-50.7 52.6-79 21.4-42 33.9-82.8 39.7-130 2.1-17.1 2.9-56.1 1.5-74-8.9-112.1-63.5-212.4-152.6-280-54.2-41.2-116.9-66.4-187.7-75.6-11.7-1.5-63.3-2.8-71.8-1.8zm65.5 111.2c35.2 5.5 65.8 15.6 93.8 31.2 73.1 40.7 123 108.1 139.2 188.3 15.9 78.9-2.2 157.8-51.2 223.6-11.4 15.2-37.1 40.9-52.8 52.7-49.4 37-106.8 56.4-167.3 56.4-61.8 0-118.3-18.7-167.4-55.5-61.4-46.1-101.2-116.2-109.3-192.3-8.4-78.9 16.9-156.7 70.1-215.7 43.7-48.4 105.5-81 168.9-88.9 6.6-.9 13.4-1.7 15-2 7.9-1.2 48.5.3 61 2.2z"/><path d="M765 470.2c-3.1 1.6-5.1 3.6-6.7 6.7-2.2 4.2-2.3 5.4-2.3 27.9v23.4l-4.1-3.6c-4.8-4.4-7.6-5.6-13-5.6-8.1 0-15.2 6.2-16.6 14.3-1 6.5 2.2 11 21.8 30.6 10.1 10.1 19.8 19.2 21.4 20.2 3.5 2.2 10.9 2.4 14.3.5 1.3-.7 11.1-10 21.8-20.6 23.7-23.8 24.9-25.9 19.7-36.8-2-4.3-8.7-8.2-14.1-8.2-5.5 0-8.3 1.2-13.1 5.6l-4.1 3.6v-23.3c-.1-22.3-.2-23.6-2.3-27.8-1.6-3.2-3.6-5.2-6.7-6.8-5.5-2.9-10.4-2.9-16-.1zM656.3 604c-12 1.7-26.3 10.2-33.2 19.7-1.5 2.1-7.8 13-14 24.3-6.3 11.3-13.3 23.9-15.6 28-2.3 4.1-8.2 14.7-13 23.5-4.8 8.8-10.2 18.5-12 21.5-9.4 16-16.5 30.8-16.5 34.7 0 5.4 3.7 12.1 8 14.4 3.3 1.8 10.8 1.9 212.8 1.9 206.1 0 209.3 0 213.1-2 4.5-2.3 8.1-8.6 8.1-14.3 0-3.6-6.3-16.9-17.5-36.7-2.3-4.1-8.9-16.1-14.5-26.5-5.7-10.5-14-25.8-18.5-34-4.5-8.3-10.1-18.6-12.5-23-8.4-15.4-14.3-21.5-26.5-27.1-16.7-7.7-43.6-7-60.3 1.5-8.9 4.6-19 15.8-21.7 24.3-4.1 12.4-12.7 23.4-23.5 29.8-8 4.8-16.1 7-26 7-22.8 0-40.3-12.8-49.1-35.9-5.3-14-17.6-25-32.9-29.5-6.6-2-26-2.8-34.7-1.6zm28.2 34.9c5.2 2.4 6.9 4.4 9.6 11.6 4.8 13 14.1 25.8 25.5 35.2 7.4 6 21.9 13.5 30.9 15.9 7.9 2.1 29.8 3 37.8 1.5 29.5-5.6 53.5-25.5 63.7-52.7 4.1-11 8.3-13.3 24.3-13.4 15 0 18.4 1.8 24.5 13 6.1 11.3 33 60.7 43.9 80.5 1.8 3.3 3.3 6.6 3.3 7.2 0 1-35.7 1.3-175 1.3-111.4 0-175-.3-175-1 0-.5 3.9-8 8.7-16.7 8.7-16 10.3-18.8 25.3-45.8 4.5-8.3 10.1-18.4 12.3-22.5 7.6-14.2 10.4-15.9 25.7-15.9 8.1-.1 11.4.4 14.5 1.8z"/></svg>